<svg id="Слой_1" data-name="Слой 1" xmlns="http://www.w3.org/2000/svg" viewBox="0 0 237.48 296.61"><defs><style>.cls-1{fill:#fff;}.cls-2{fill:#201600;}</style></defs><title>gull3</title><path class="cls-1" d="M100.83,84.48c-.91-1.18-.68-1.89.68-2.13C102.41,83.53,102.18,84.24,100.83,84.48Z" transform="translate(-32.26 -25.67)"/><path class="cls-1" d="M114.22,88c2.35.35,5.3.56,5.92,3.44-2.19,0-4.37,0-6.56,0Z" transform="translate(-32.26 -25.67)"/><path class="cls-1" d="M114.2,147.22l2.78-.56c.46,3.64.91,7.28,1.46,10.91-1.4-.7-2.8-1.39-4.19-2.1C114.34,152.72,114.34,150,114.2,147.22Z" transform="translate(-32.26 -25.67)"/><path class="cls-1" d="M144.06,157.69c1.43-2.43,2.8-5.66,6.11-5.74C149.73,155.11,147.52,157.81,144.06,157.69Z" transform="translate(-32.26 -25.67)"/><path class="cls-1" d="M139.06,161.94c1.4-.49,1.87,0,1.42,1.4C139.08,163.82,138.61,163.35,139.06,161.94Z" transform="translate(-32.26 -25.67)"/><path class="cls-1" d="M85.9,191.28c1.42-3.27,2.95-6.83,6.16-8.72A10.73,10.73,0,0,1,85.9,191.28Z" transform="translate(-32.26 -25.67)"/><path class="cls-1" d="M72.6,229.57c3.45,5.55,1,12.43.68,18.48A63.63,63.63,0,0,1,72.6,229.57Z" transform="translate(-32.26 -25.67)"/><path class="cls-1" d="M76.43,251.66c1.87,11.37,3.33,22.84,6,34-.52.65-1.06,1.3-1.6,1.93-.78-8-4.39-15.53-4.84-23.62A57.41,57.41,0,0,1,76.43,251.66Z" transform="translate(-32.26 -25.67)"/><path class="cls-2" d="M115.76,29c1-2.47,4.35-4.61,6.64-2.38,4.61,4.56,6.27,11.17,7.64,17.31a77.43,77.43,0,0,1,16.67-.29l-.16,1.87c-5.07-.32-10.52-.84-15.22,1.51-3.58,1.76-7.36,3.18-10.52,5.67,1.79.75,3.59,1.47,5.39,2.2-1.26.95-2.5,1.91-3.74,2.87-2.62-.16-5.23-.38-7.83-.59a55.31,55.31,0,0,0-8.83,15.68c9.54-1.25,18.78,2.07,27.21,6.19.37-3.63-.07-7.81,2.27-10.88,1-1.62,3,0,3.72,1,1.2,2.19.63,4.81.75,7.2a46.82,46.82,0,0,0-3.37-5.88c-.38,2.25-.65,4.51-.84,6.78,1.73.12,3.46.26,5.19.45-1.45.25-2.9.48-4.35.7-1,1.08-2,2.17-3,3.22a39.3,39.3,0,0,0,.07,17.3c.26,8.12.44,16.41,3.48,24.08l2.81-1.09c3.27-3.67,3.85-8.84,5.82-13.21,0,2.89-.12,5.78,0,8.67,1.21-6,4.33-11.5,4.2-17.74a24.11,24.11,0,0,1-2.42,18.81c-1.54,2.72-3.05,6-6.28,7a7.37,7.37,0,0,1-8.81-4.62c-3.91-13-4.63-27.13-.53-40.13-7.79-1.89-15.83-3.25-23.86-2.44-1.37.29-3.39.27-4,1.86a76.47,76.47,0,0,0-1.3,11c2.93.23,5.85.39,8.79.53q.54-2.46,1.13-4.92,2.46-.67,4.91-1.42c-3.8-.69-6.7,2-9.61,3.93,1-6,8.57-9,13.39-5.51,1.26,2.67,1,5.74,1.34,8.61l-4.26-.27,0,1.34c1.33.29,2.67.6,4,.92a130.28,130.28,0,0,1-20.07,2.12c1.07.32,2.17.53,3.27.77-1.92,2.54-.84,5.9-.61,8.78.81,7,2.78,13.94,2.84,21,.3,3.52.49,7.15,1.79,10.46,1.61,2.88,4,5.47,4.18,8.94,1.08-.76,2.17-1.51,3.3-2.18,1.26,4.38,1.72,8.92,2.63,13.37,1.49,1.15,3.54,2.2,3.56,4.38-.06,2.81-2.11,4.91-4,6.77a22.62,22.62,0,0,1,.83-6.45c-1-1.59-2.88-2-4.45-2.73-.89,5.32,1.42,10.47.67,15.79a14.21,14.21,0,0,1-2.47-3.71c-1.67,1.45-2.76,4-1.86,6.13,3.44,4.33,7.21,8.4,11,12.42,3.66,6,7.06,12.41,12.37,17.2a27.42,27.42,0,0,0,1.12,5.59,4,4,0,0,1-2.38-1.77c-2.61-4.14-5.18-8.31-8.18-12.18-5.08-6.55-9.8-13.45-15.9-19.12-2.87-2.67-5.7-6.24-10-6.29-3.75,2.08-5.54,6.28-6.58,10.23-2.14,8.19-11.92,10.81-14.38,18.87,5.56.37,10.46-2.68,15.89-3.25-5.37,1.22-10.35,4.16-16,4a56.84,56.84,0,0,1-4.85,7.69,53.54,53.54,0,0,1,1.49-6.87c-3.8.63-8,.62-11.19,3s-7,4.07-9.9,6.84c-1.87,4.91-.41,10.23,1.07,15,6-2.4,10.86-6.81,16.25-10.25s10.5-7.69,16.23-10.77c-1.83,2.53-4.6,4.07-7.08,5.87-7.69,5.39-15.58,10.51-23.11,16.11,2.78-.14,5.55-.43,8.32-.71-2.75.64-5.84.71-8,2.71.9,1,1.8,1.91,2.69,2.87,2.15-1.24,4.3-2.49,6.35-3.9a32.91,32.91,0,0,1,2.34-3.39c0-.44.11-1.32.14-1.76A38.58,38.58,0,0,0,75,223l2,2.08c4.43-1.76,7-6.06,8.7-10.24-.5,3.89-3.43,6.66-5.65,9.66,16,.2,32-1.84,48-3,4.74-.38,9.51,0,14.22-.66,5.84-.81,11.74,1.31,17.54,0,3.28-4.88,5.65-10.32,8.77-15.32,2.72-5.17,6.33-9.86,8.72-15.21-2-2.26-2.88-5.19-3.52-8.08-1.12-3.19,1.82-6.09.87-9.34a67.87,67.87,0,0,1-1-17.49l-3.3-1.11a10.16,10.16,0,0,1-7,3.83c2.34-2.83,5.94-4.74,7.34-8.26.57-5.63-.18-11.28-1-16.85-.32-6.81.71-13.6,1-20.39-.27-.14-.82-.42-1.1-.55a4.1,4.1,0,0,0,2-3.23c1-4.45.93-9,1.13-13.54-7.35-1-15.16-.9-21.86-4.49-3.21-2-3.05-6.21-1.51-9.22-.32-.78-.63-1.56-.94-2.34-2.06-.73-4.11-1.65-5.23-3.65a59.54,59.54,0,0,1,8-.31,31.85,31.85,0,0,1-3.59-2.85c9.36.85,18.77,0,28.13.88,1.72-.06,2.68,1.41,3.55,2.65-6.87.54-13.78-.14-20.64.54,7.07.23,14.16.28,21.23.29,1.43.16,2.11-1.4,3.12-2.1,5.07,1,11.26,1.67,14.29,6.45-4.1-1.89-8.22-4.3-12.92-4,5.25,1.57,10.9,3.5,14.22,8.16.86,1.71,1.86,4,.68,5.77-4.42.61-9,.37-13.24,1.83a48.16,48.16,0,0,1-12,2c-.22,7.84,2.91,15.23,3.28,23,.32,6.77.16,13.56.11,20.34-1.39-5.17-.75-10.56-1.16-15.84-1,4.61-.16,9.35-.92,14-.76-7.61.84-15.33-.73-22.88-.38-2.68-.36-5.41-.6-8.11a4.59,4.59,0,0,0-1.52,3.51,240.92,240.92,0,0,0,.75,33.12c.69-1.27.71-5.61,2.79-3.35,0,3.33,1.66,7.53-1.36,10l-.54-1.62c-.11.57-.34,1.69-.45,2.25l2.76-.65c-1.55,7-.38,14.21-.11,21.3.26,4.69,0,9.39.05,14.09,1.47-5.12,3-10.65,6.87-14.51,2.92-2.63,6.77-.28,9.41,1.53,12.46,8.74,22,21.34,35.7,28.35,2.86,1.43,6.3,1.94,8.53,4.42a52,52,0,0,0,10.79,8.88c1.69-.71,3.58-2.3,5.44-1.12,2.46,1.9,3.71,4.91,5.94,7.05,2.17,2.47,5.79,1.32,8.66,1.86a2,2,0,0,1,1.45,3.22c-1.48,3.66-5.44,6-5.84,10.08-.77,3.38-2.6,6.48-2.82,10-.33,2.65.14,5.4-.54,8a21.73,21.73,0,0,1-5.09,2.91c3.13,6.27,6.59,12.9,5.78,20.17.07,4.27-2.84,7.58-4.8,11.09-.51,5.71.22,12.33-4.16,16.83-2.62,3.1-7,2.09-10.46,3.38-8,3.15-16.67,4-25.18,4.47l1.7,3.28-.59,2.51,1.77,1.9c-5.37-.12-10.62,1.23-16,1.17-25.37.54-50.75.93-76.09,2.19a245.16,245.16,0,0,1-49-1.95q2.86-.32,5.76-.51a5.32,5.32,0,0,1-1.07-6.74c-3.55-.75-7-2.2-10.67-2.17-7.44-.18-15.44-.39-21.9-4.57-8.54-5.66-14.36-15.54-14.4-25.88.28-7.22-3.79-13.76-3.43-21-.42-4.17.81-8.12,2.13-12l-.81-1.83c4.45-4.2,9.67-7.43,14.84-10.64,3.12-2,3.14-6.32,2-9.48.83-6.05-.32-13.21,4.4-18l1.5,2.77a190.72,190.72,0,0,1,17.09-10.25c2.25-1.25,4.94-1.55,7.07-3,1.87-2,3-4.56,4.5-6.88,2.74-4.75,6.59-8.71,9.69-13.21,1.56-2,3.35-4.68,6.28-4.38,3.3-.39,5.94,1.89,8.44,3.67.24-5.64,1.78-11.13,2-16.76-.4-7.51-2.44-14.8-4.63-22-1.14-8.41-2.83-16.73-4-25.14-.44-3.74-2.7-7.08-2.47-10.92-.25-1.4.45-3.5-1.23-4.21-2.7-.44-5.53,0-8.16-.87S88.45,92,87,90c-1.19-2.1-3.63-4.33-2.12-6.91C89.75,79,95.91,77,101.39,74c3-.38,3.3-3.67,4.24-5.91-1.73-1.46-1.2-3.87-1.44-5.86l1.65.42a21.38,21.38,0,0,1,5.08-5.48c-2,.16-4,.49-5.45,2.08l-2.14.26c-3.09,2.63-6,5.51-7.92,9.17L93,68.27c1.84-3.25,3.45-6.62,5.43-9.78,1.6-2.43,4.68-2.91,7.14-4.05,2.1-.69,3.44-2.52,5-4a54.22,54.22,0,0,1,7.25-5.93l-2.55-1.24c-.83-1.73,1.56-2.31,2.43-3.32-.15-3.73-1.29-7.3-1.93-11m2.35.08c.92,3.56,1.42,7.2,2,10.82a41.62,41.62,0,0,0,6.49.75,40.23,40.23,0,0,0-5.93-12.58l-2.57,1m2,14.69c-3.63,2.85-7.52,5.5-10.44,9.13,3.1-.07,6.43-.23,8.82-2.49,2.82-2.5,6.7-3.53,9.29-6.25-1.47-2.71-5.56-1.9-7.67-.39M149.51,86l1.4,2.79,5.08-.31c.18-2.24.07-5.41,3-5.92a9.57,9.57,0,0,1,8.29,8l6.32-.41c.11-3.32.13-6.65.1-10-5.94,0-11.92.34-17.81-.66-3.8-.76-5.23,3.79-6.35,6.53M87.63,84.51c-1,1.63,1.09,2.49,1.94,3.59a32.06,32.06,0,0,1,8.72-8.18c-3.83.63-7.85,1.74-10.66,4.59m86.69-4.61q-.09,4.95-.1,9.91c4.27-.26,8.55-.35,12.84-.45a9.26,9.26,0,0,0,7.47-3.44,3.09,3.09,0,0,0-1.73-3.85c-5.47-3.59-12.32-2.95-18.48-2.17M90.85,88.39a21.34,21.34,0,0,0,8.7,2.46,19,19,0,0,0-.21-9.78,43.92,43.92,0,0,0-8.49,7.32m10-3.91c1.35-.24,1.58-1,.68-2.13-1.36.24-1.59,1-.68,2.13m56.92.38c.16,1.51,0,3.13.71,4.51,1.75.79,3.72.8,5.59,1-.62-1.22-1.23-2.45-1.86-3.67l-4.44-1.89m35.17,5.71c1.94-.21,4.07.21,5.85-.79,1.48-1.75-.73-3.4-1.44-5-1.46,1.92-3,3.83-4.41,5.76M114.22,88l-.64,3.42c2.19,0,4.37.05,6.56,0-.62-2.88-3.57-3.09-5.92-3.44m0,59.18c.14,2.74.14,5.5,0,8.25,1.39.71,2.79,1.4,4.19,2.1-.55-3.63-1-7.27-1.46-10.91l-2.78.56m66.07,37c1.55-3.17,2.58-6.59,4.35-9.65,2-1.09,2,1.94,1.62,3.17-1.27,3.7-3.28,7.09-4.79,10.69-3,6.5-4.62,13.52-7,20.24-1.32,4.39-3.14,8.77-2.9,13.44a156.9,156.9,0,0,1,22.6,3.33c7.91,1.09,15.94.24,23.9.46,2.22-.15,4.92.58,6.56-1.36,3.14,3.2,5.45,7.3,9.47,9.56a68.2,68.2,0,0,1,18.8,17.63c1.4-.61,2.85-1.14,4.19-1.88.55-4.64,1-9.31,2.52-13.77a72.43,72.43,0,0,0-6.42,5.83c2.15-3.44,4.89-6.5,6.86-10.06-1.71-5.86-8-8.77-11.17-13.79,5.76,1.93,9.4,7.14,13.21,11.54,1.59-2,3.11-4.09,4.6-6.19-2.75-.32-5.92.14-8.25-1.67-2.6-2.09-4.31-5-6.26-7.69a22.9,22.9,0,0,1-4.13,1.56c-6.21-2-9.84-7.9-15.08-11.32-14.95-5-25.18-17.59-37-27.32-3.08-2.39-6-5.34-9.94-6.28-4.38,2.71-6.08,8.59-5.75,13.53M85.9,191.28a10.73,10.73,0,0,0,6.16-8.72c-3.21,1.89-4.74,5.45-6.16,8.72m88.87,7.56c-2.9,8.47-9.17,15-13.53,22.7l3.68-.31c4.47-6.81,8.42-14.3,9.85-22.39m-5.42,17.23a27.87,27.87,0,0,0-2.48,6.16c3.15-.37,2.84-3.87,2.48-6.16m-55,10.56c7.82.9,15.83.43,23.56,2.2,6.92.94,13.68,3,20.59,3.83a27,27,0,0,0,2.71-4.72c-3.15-.05-6.29-.19-9.42-.48L150,228.72a14.71,14.71,0,0,0-6-1.4c-8.67,0-17.34-.46-26-1.06-1,.15-3.44-.79-3.71.37m45.31,6.83c2.75.8,5.53,1.51,8.33,2.15-3.05-.55-6.1-1.1-9.17-1.57-3.16,5-6.5,9.8-9.63,14.78,2.65-5.19,6-10,8.61-15.2-26.05-3.81-52.55-6-78.82-3.35a25.19,25.19,0,0,0-.67,9.85c2.44,17.31,5.49,34.53,8.85,51.68A32,32,0,0,0,90,300.9c.24,3.39,1,6.72,1.24,10.11-.6,3-4.06,3.22-6.44,3.82,7.34,2.06,15.21,1.39,22.53,3.68.73-.65,1.47-1.29,2.2-1.92,30.13,2.72,60.32-.36,90.47-1a69.67,69.67,0,0,0,13.45-2.21A24.86,24.86,0,0,0,203,310.77c-10.52-.38-20.87-2.51-31.21-4.3,12,0,23.8,2.42,35.78,2.12,0-1.38,0-2.75-.06-4.12-3.9-.15-7.93.56-11.69-.7,4.76-1.08,9.72-1.09,14.35-2.76.26-1.21.51-2.43.77-3.63l-2,.46c.89-4.71,2.61-9.19,3.79-13.83,3.33-13.56,5.73-27.32,8.1-41.07a9.58,9.58,0,0,1,2.49-5.06,11.42,11.42,0,0,0-3-8.5l-4-.3c-.34.79-1,2.37-1.34,3.16L217,234c-8.35-3-17.32-3.65-26.1-4.39-9-.62-18-1.61-27-1.49-2.85-.21-3,3.63-4.24,5.39M72.6,229.57a63.63,63.63,0,0,0,.68,18.48c.29-6.05,2.77-12.93-.68-18.48M224,230c0,.7,0,2.1,0,2.81,1.44,4.33.72,9,.16,13.39-1.86,9.65-4.48,19.13-6.4,28.77-.71,3,.46,6.13-.86,9-2,5.44-4.14,11.13-3.42,17,5.88-1.21,11.89-2.36,17.28-5.11,6.45-3.7,11.85-10.22,12.4-17.86.66-5.71-1.7-11.09-3.1-16.5-4.79,1.56-9.18,4.14-14.06,5.41,4.54-5.48,11.2-8.51,17.63-11.19-2.12-3.76-4.27-7.77-8-10.2-2.06-.78-1.15-3.23-1.42-4.86,4.89,3.66,9.23,8.29,11.3,14.15q2.76-1.32,5.54-2.6a67.58,67.58,0,0,0-13.61-13.83c-1.08-1-2.56-.81-3.88-1-1.05-1.3-2.07-2.61-3.1-3.92l-3.39.35c.33-1.53.65-3.07,1-4.59-1.37.24-2.74.49-4.1.75M53.89,232.24c-.7,1.6-1.39,3.21-2,4.84a18,18,0,0,0,4.15-3c-.68-.66-1.4-1.26-2.12-1.87m-6.66,16.89c5.73,1.92,11.71,4.31,15.18,9.57-5.76-2.06-11.31-5.25-17.41-6-2.77,5.29-6,11.07-5.64,17.2,3.58,10,10.85,18.14,18.79,24.95,3,2.38,6.19,4.55,8.68,7.51a21.33,21.33,0,0,1,14,4c.48,1.29-.67,1.71-1.61,2.17a23.57,23.57,0,0,1,5.21,1.84c.3-1.15.59-2.3.87-3.44l1.11-1.71c-.7-5.76-3.21-11.25-3.07-17.13l-2-.42c0,.56.08,1.66.11,2.21-1.88-4.31-3.42-8.75-5-13.15a56.19,56.19,0,0,0,1.86,13.89c.78,3.28,3.21,5.75,5.06,8.46-4.09-.24-6.71-3.88-7.79-7.49-2.89-10-2.53-20.47-3-30.74-1.34-9.61-2.69-19.25-3-29-9.24,2.78-16.84,9.45-22.36,17.2M36.44,245.8c0,5.23-.45,10.51.54,15.69.89-2.22,1.68-4.46,2.45-6.71.1,1.08.31,3.25.41,4.34a39.18,39.18,0,0,0,4-7.13c-2.18-1.08-6.76-1.76-6.12-4.93,3.23-3.73,8.2-5.66,10.69-10.12-5,1.22-8.8,5-11.94,8.86m5.14,1.5a20.55,20.55,0,0,0,4.09,1.46c2.46-1.71,3.85-4.59,5.67-6.9a53.31,53.31,0,0,0-9.76,5.44m34.85,4.36A57.41,57.41,0,0,0,76,264c.45,8.09,4.06,15.58,4.84,23.62.54-.63,1.08-1.28,1.6-1.93-2.7-11.21-4.16-22.68-6-34M35.68,268.29a91.16,91.16,0,0,0-1.22-15.73c-.21,5.26-.51,10.67,1.22,15.73M247.44,258c1.42,4.28,3.56,8.29,4.8,12.64,1.54,4.09,1.74,8.58,3.61,12.56,1.9-3.42,3.9-7.19,3.39-11.24a37.15,37.15,0,0,0-5.65-15.68c-1.91-1.09-4.31.94-6.15,1.72m-7,3.12c2.62,7.38,5,15.76,1.82,23.35-1.71,4.52-5.54,7.61-8.56,11.21,7-2.26,14.88-4.72,19.49-10.79a71,71,0,0,0-8-26.09l-4.78,2.32M38.15,272.71a25.61,25.61,0,0,0,3.51,9.57c4.32,8,9.58,16.46,18.27,20.26a9,9,0,0,1,5.88-.85c-7-5.41-14.5-10.38-20-17.41-3.1-3.48-4.79-7.91-7.63-11.57m1,9.06c-.2,5,1.92,9.67,4.55,13.77,2.1,2.88,4.94,5.83,8.81,5.77-4.91-6.18-10.48-12-13.36-19.54M233,297.9c-6.18,1.74-12.18,4.12-18.51,5.28-2.62.17-2.93,3.06-3.8,4.95a27.83,27.83,0,0,0,7.29.24c3.18-.93,6-2.77,8.83-4.39-1.06,1.22-2.15,2.42-3.18,3.68a56.84,56.84,0,0,0,18.12-4.33c2.17-1.08,4.63-1,7-.89,4.72-3.3,5.26-9.31,5-14.58a58.07,58.07,0,0,1-20.79,10M49.75,301.52c4.9,5.7,13.33,5.89,20.29,6-2.86-2.33-6.54-2.82-10-3.59S53.43,301,49.75,301.52Z" transform="translate(-32.26 -25.67)"/><path class="cls-2" d="M125.85,53.87c7.27-4.55,15.65-6.83,24-8.38,7.88.71,16.11,3.75,20.8,10.48-1.5-.73-3-1.48-4.48-2.22,3.17,5,6.13,10.35,6.49,16.36-2.35-4.9-3.34-10.61-7.21-14.66-3.22-3.11-7-6.05-11.58-6.68C144.23,47.12,134.8,50.72,125.85,53.87Z" transform="translate(-32.26 -25.67)"/><path class="cls-2" d="M134.53,147c2.22,4.27,2.45,9.19,4,13.7l4.48-.64c-.9-.94-1.8-1.86-2.73-2.77l2.75.25a32.68,32.68,0,0,1,5.4-7.09l1.57.3c.85,1.65,3.62,3.29,2.06,5.31-2.32,3.3-4.7,7.45-9.08,8.05-1.66.33-2.85,1.57-4.14,2.56-2.45-6.32-2.6-13.16-4.31-19.67m9.53,10.68c3.46.12,5.67-2.58,6.11-5.74-3.31.08-4.68,3.31-6.11,5.74m-5,4.25c-.45,1.41,0,1.88,1.42,1.4C140.93,161.92,140.46,161.45,139.06,161.94Z" transform="translate(-32.26 -25.67)"/><path class="cls-2" d="M94.8,213.76c6.12-2,12,2.24,15,7.29A67.42,67.42,0,0,0,94.8,213.76Z" transform="translate(-32.26 -25.67)"/></svg>